<?xml version="1.0" standalone="no"?>
<!DOCTYPE svg PUBLIC "-//W3C//DTD SVG 20010904//EN"
 "http://www.w3.org/TR/2001/REC-SVG-20010904/DTD/svg10.dtd">
<svg version="1.0" xmlns="http://www.w3.org/2000/svg"
 width="500.000000pt" height="500.000000pt" viewBox="0 0 500.000000 500.000000"
 preserveAspectRatio="xMidYMid meet">
<metadata>
Created by potrace 1.15, written by Peter Selinger 2001-2017
</metadata>
<g transform="translate(0.000000,500.000000) scale(0.100000,-0.100000)"
fill="#000000" stroke="none">
<path d="M1167 4288 c-3 -13 -28 -113 -56 -222 -28 -110 -49 -201 -47 -204 3
-2 212 -50 465 -106 l460 -101 -71 -110 c-183 -284 -364 -628 -493 -940 -175
-419 -326 -960 -395 -1412 -19 -123 -19 -136 -5 -205 20 -95 67 -292 70 -296
2 -2 293 72 647 164 l645 167 -24 96 c-12 53 -30 134 -39 181 -9 47 -20 88
-23 92 -3 4 -222 -33 -485 -83 -263 -49 -481 -87 -484 -85 -7 8 42 252 89 441
167 674 457 1322 833 1858 75 107 76 109 116 264 22 86 37 159 33 163 -7 6
-1212 360 -1226 360 -2 0 -7 -10 -10 -22z"/>
<path d="M3051 3847 c-13 -34 -83 -318 -79 -322 2 -1 203 -46 448 -100 245
-53 451 -101 459 -105 10 -5 6 -16 -21 -46 -403 -458 -745 -1122 -909 -1771
l-24 -93 23 -107 c12 -60 27 -124 32 -145 l10 -36 263 68 c144 37 433 111 642
165 209 54 381 99 383 100 1 1 -11 60 -26 131 -19 86 -34 130 -43 131 -8 1
-225 -37 -484 -86 -258 -49 -472 -87 -474 -85 -6 6 80 266 136 409 181 461
458 908 775 1250 74 80 74 80 102 188 15 60 25 111 22 114 -4 4 -1022 305
-1194 352 -29 9 -34 7 -41 -12z"/>
</g>
</svg>
