<?xml version="1.0" standalone="no"?>
<!DOCTYPE svg PUBLIC "-//W3C//DTD SVG 20010904//EN"
 "http://www.w3.org/TR/2001/REC-SVG-20010904/DTD/svg10.dtd">
<svg version="1.0" xmlns="http://www.w3.org/2000/svg"
 width="700.000000pt" height="700.000000pt" viewBox="0 0 700.000000 700.000000"
 preserveAspectRatio="xMidYMid meet">
<metadata>
Created by potrace 1.11, written by Peter Selinger 2001-2013
</metadata>
<g transform="translate(0.000000,700.000000) scale(0.100000,-0.100000)"
fill="#000000" stroke="none">
<path d="M1631 5993 c-52 -194 -141 -570 -137 -579 2 -6 17 -14 33 -17 15 -3
37 -7 48 -10 38 -10 300 -69 388 -88 48 -10 114 -25 145 -33 31 -8 71 -17 87
-20 50 -8 579 -126 583 -130 2 -2 -25 -48 -61 -103 -367 -565 -674 -1190 -888
-1806 -53 -151 -174 -546 -184 -599 -3 -11 -9 -35 -15 -53 -6 -18 -12 -41 -15
-51 -2 -10 -20 -86 -40 -169 -20 -82 -38 -159 -41 -170 -8 -43 -46 -230 -51
-254 -35 -176 -60 -367 -58 -431 2 -44 23 -157 49 -270 55 -234 57 -240 65
-240 3 0 78 18 166 41 88 22 167 42 175 44 8 2 78 20 155 40 149 39 330 85
355 90 8 2 179 47 380 99 201 53 374 98 385 101 44 10 180 47 183 50 2 1 -8
47 -21 101 -13 55 -30 124 -36 154 -6 30 -22 100 -34 155 -25 111 -23 110
-112 94 -22 -4 -60 -10 -85 -14 -25 -3 -52 -8 -60 -10 -8 -2 -31 -7 -50 -10
-19 -3 -159 -28 -310 -56 -151 -28 -288 -53 -305 -55 -16 -3 -50 -9 -75 -14
-40 -8 -128 -24 -200 -36 -14 -2 -34 -6 -45 -9 -11 -2 -42 -7 -70 -10 -27 -4
-54 -8 -60 -9 -12 -1 -8 47 12 144 8 41 17 84 19 95 2 11 6 31 9 45 3 14 7 34
9 45 2 11 11 50 20 86 8 37 17 78 20 90 8 41 13 61 41 169 15 58 28 112 30
120 12 51 95 321 142 460 129 382 259 694 443 1060 77 154 125 242 234 433 51
90 270 431 286 447 3 3 29 41 58 85 58 88 93 186 141 396 31 136 30 140 -29
157 -19 6 -64 19 -100 30 -36 11 -104 32 -152 46 -49 14 -127 38 -175 52 -49
14 -162 48 -253 74 -91 27 -250 74 -355 105 -104 30 -197 57 -205 60 -8 2
-103 29 -210 59 -107 31 -200 56 -207 56 -7 0 -17 -17 -22 -37z"/>
<path d="M4271 5383 c-22 -54 -112 -436 -104 -443 7 -6 75 -24 128 -34 11 -2
103 -23 205 -46 102 -23 196 -44 210 -46 14 -3 39 -9 55 -14 17 -5 57 -14 90
-20 70 -14 374 -82 490 -111 43 -10 83 -23 88 -28 4 -4 -37 -63 -95 -132 -57
-68 -121 -149 -143 -179 -21 -30 -42 -57 -45 -60 -9 -7 -155 -218 -211 -305
-138 -212 -350 -605 -448 -830 -24 -55 -52 -118 -62 -140 -86 -192 -205 -539
-283 -825 -42 -157 -51 -202 -44 -230 4 -19 24 -109 44 -200 20 -91 37 -166
38 -167 2 -2 42 7 166 40 145 39 982 254 1020 263 8 1 56 14 105 27 50 13 182
48 295 77 113 29 208 56 212 59 5 4 -1 50 -13 101 -11 52 -23 104 -25 116 -2
11 -12 47 -22 80 l-18 59 -45 -1 c-24 0 -62 -4 -83 -8 -70 -12 -260 -46 -286
-51 -14 -3 -38 -7 -55 -10 -55 -9 -109 -19 -191 -36 -28 -5 -64 -12 -80 -15
-16 -2 -51 -9 -79 -14 -27 -5 -62 -12 -77 -14 -15 -3 -63 -11 -105 -20 -43 -8
-121 -22 -173 -31 -52 -9 -114 -20 -137 -25 -42 -7 -43 -7 -37 19 25 104 160
490 232 661 80 189 249 538 278 571 8 8 14 19 14 24 0 12 151 260 241 396 69
103 289 404 308 419 3 3 38 43 78 90 39 47 96 112 127 145 31 33 68 79 82 102
22 36 83 251 84 294 0 18 -19 27 -130 60 -133 39 -337 100 -470 140 -78 24
-475 140 -780 229 -160 46 -319 90 -328 90 -5 0 -15 -12 -21 -27z"/>
</g>
</svg>
